<svg width="150" height="32" viewBox="0 0 150 32" fill="none" xmlns="http://www.w3.org/2000/svg">
<path fill-rule="evenodd" clip-rule="evenodd" d="M31.7011 24.1369L28.9369 21.3771L18.2967 32L0 13.7331L5.87951 7.86311L8.64376 10.6229L19.2839 0L37.5806 18.2669L31.7011 24.1369ZM11.408 21.618L3.51016 13.7331L5.87951 11.3676L8.64376 14.1273L19.2839 3.50445L24.4175 8.6297L22.0482 10.9952L19.2839 8.23547L11.0131 16.4928L13.7773 19.2526L11.408 21.618ZM13.1631 23.3703L18.2967 28.4955L28.9369 17.8727L31.7011 20.6324L34.0705 18.2669L26.1726 10.3819L23.8032 12.7474L26.5675 15.5072L18.2967 23.7646L15.5324 21.0048L13.1631 23.3703ZM18.2967 20.2601L14.5233 16.4928L19.2839 11.7399L23.0573 15.5072L18.2967 20.2601Z" fill="white"/>
<path d="M123.136 18.9754C123.186 18.598 123.212 18.1703 123.212 17.8936C123.136 14.1198 120.666 11.7549 116.937 11.7549C113.182 11.7549 110.662 14.3965 110.662 18.3716C110.662 22.3215 113.182 24.938 117.214 24.938C120.389 24.938 122.531 23.0008 122.985 20.4598H120.263C119.91 21.8938 118.676 22.724 117.063 22.724C114.946 22.724 113.585 21.29 113.51 19.1012V18.9754H123.136ZM116.962 13.9437C118.852 13.9437 120.162 15.0255 120.389 16.9376H113.61C113.812 15.101 115.274 13.9437 116.962 13.9437Z" fill="white"/>
<path d="M131.194 24.938C134.294 24.938 136.612 23.3782 136.612 20.9126C136.612 18.0445 134.218 17.4407 131.345 17.0885C129.506 16.8872 128.271 16.7363 128.271 15.5287C128.271 14.4972 129.329 13.843 130.892 13.843C132.479 13.843 133.563 14.6733 133.714 15.8557H136.385C136.209 13.2141 133.991 11.7549 130.841 11.7549C127.792 11.7549 125.625 13.3147 125.625 15.7551C125.625 18.4219 127.918 19.0509 130.841 19.4031C132.782 19.6547 133.941 19.7553 133.941 21.139C133.941 22.1706 132.857 22.8247 131.219 22.8247C129.279 22.8247 128.12 21.8686 128.019 20.5352H125.348C125.449 23.3279 127.792 24.938 131.194 24.938Z" fill="white"/>
<path d="M144.581 24.938C147.681 24.938 149.999 23.3782 149.999 20.9126C149.999 18.0445 147.605 17.4407 144.733 17.0885C142.893 16.8872 141.658 16.7363 141.658 15.5287C141.658 14.4972 142.717 13.843 144.279 13.843C145.867 13.843 146.95 14.6733 147.101 15.8557H149.773C149.596 13.2141 147.379 11.7549 144.229 11.7549C141.179 11.7549 139.012 13.3147 139.012 15.7551C139.012 18.4219 141.305 19.0509 144.229 19.4031C146.169 19.6547 147.328 19.7553 147.328 21.139C147.328 22.1706 146.245 22.8247 144.607 22.8247C142.666 22.8247 141.507 21.8686 141.406 20.5352H138.735C138.836 23.3279 141.179 24.938 144.581 24.938Z" fill="white"/>
<path d="M105.617 22.3967V7.17578H99.166V9.56585H102.896V22.3967H99.166V24.7868H109.321V22.3967H105.617Z" fill="white"/>
<path d="M52.4902 22.3967V7.17578H46.0391V9.56585H49.7686V22.3967H46.0391V24.7868H56.1945V22.3967H52.4902Z" fill="white"/>
<path d="M64.0881 24.9378C67.9436 24.9378 70.5896 22.2961 70.5896 18.3462C70.5896 14.4215 67.9436 11.7547 64.0881 11.7547C60.2073 11.7547 57.5866 14.4215 57.5866 18.3462C57.5866 22.2961 60.2073 24.9378 64.0881 24.9378ZM64.0881 22.6232C61.8453 22.6232 60.3585 20.8369 60.3585 18.3462C60.3585 15.8555 61.8453 14.0692 64.0881 14.0692C66.3056 14.0692 67.7924 15.8555 67.7924 18.3462C67.7924 20.8369 66.3056 22.6232 64.0881 22.6232Z" fill="white"/>
<path d="M78.4866 24.9378C81.5861 24.9378 83.9045 23.3779 83.9045 20.9124C83.9045 18.0443 81.5105 17.4405 78.6378 17.0883C76.7982 16.887 75.5634 16.7361 75.5634 15.5284C75.5634 14.4969 76.6218 13.8428 78.1842 13.8428C79.7717 13.8428 80.8553 14.6731 81.0065 15.8555H83.6777C83.5013 13.2139 81.2837 11.7547 78.1338 11.7547C75.0846 11.7547 72.9174 13.3145 72.9174 15.7549C72.9174 18.4217 75.2106 19.0507 78.1338 19.4029C80.0741 19.6545 81.2333 19.7551 81.2333 21.1388C81.2333 22.1703 80.1497 22.8244 78.5118 22.8244C76.5714 22.8244 75.4122 21.8684 75.3114 20.535H72.6403C72.7411 23.3276 75.0846 24.9378 78.4866 24.9378Z" fill="white"/>
<path d="M91.8739 24.9378C94.9734 24.9378 97.2918 23.3779 97.2918 20.9124C97.2918 18.0443 94.8978 17.4405 92.025 17.0883C90.1855 16.887 88.9507 16.7361 88.9507 15.5284C88.9507 14.4969 90.0091 13.8428 91.5715 13.8428C93.159 13.8428 94.2426 14.6731 94.3938 15.8555H97.065C96.8886 13.2139 94.671 11.7547 91.5211 11.7547C88.4719 11.7547 86.3047 13.3145 86.3047 15.7549C86.3047 18.4217 88.5979 19.0507 91.5211 19.4029C93.4614 19.6545 94.6206 19.7551 94.6206 21.1388C94.6206 22.1703 93.537 22.8244 91.8991 22.8244C89.9587 22.8244 88.7995 21.8684 88.6987 20.535H86.0275C86.1283 23.3276 88.4719 24.9378 91.8739 24.9378Z" fill="white"/>
</svg>
