<svg width="171" height="37" viewBox="0 0 171 37" fill="none" xmlns="http://www.w3.org/2000/svg">
<path fill-rule="evenodd" clip-rule="evenodd" d="M36.1393 27.516L32.988 24.3699L20.8582 36.48L0 15.6557L6.70265 8.96394L9.85389 12.1101L21.9837 0L42.8419 20.8243L36.1393 27.516ZM13.0051 24.6446L4.00158 15.6557L6.70265 12.959L9.85389 16.1051L21.9837 3.99507L27.836 9.83786L25.1349 12.5346L21.9837 9.38844L12.5549 18.8018L15.7062 21.9479L13.0051 24.6446ZM15.0059 26.6421L20.8582 32.4849L32.988 20.3749L36.1393 23.521L38.8403 20.8243L29.8368 11.8354L27.1357 14.5321L30.2869 17.6782L20.8582 27.0916L17.707 23.9455L15.0059 26.6421ZM20.8582 23.0965L16.5565 18.8018L21.9837 13.3835L26.2854 17.6782L20.8582 23.0965Z" fill="black"/>
<path d="M140.376 21.6298C140.434 21.1996 140.463 20.7121 140.463 20.3966C140.376 16.0944 137.561 13.3984 133.309 13.3984C129.029 13.3984 126.156 16.4099 126.156 20.9415C126.156 25.4444 129.029 28.4272 133.625 28.4272C137.245 28.4272 139.687 26.2188 140.204 23.322H137.101C136.699 24.9568 135.292 25.9033 133.453 25.9033C131.04 25.9033 129.489 24.2685 129.402 21.7732V21.6298H140.376ZM133.338 15.8937C135.493 15.8937 136.987 17.1269 137.245 19.3067H129.517C129.747 17.213 131.413 15.8937 133.338 15.8937Z" fill="black"/>
<path d="M149.563 28.4272C153.096 28.4272 155.739 26.649 155.739 23.8383C155.739 20.5686 153.01 19.8803 149.735 19.4788C147.638 19.2493 146.23 19.0772 146.23 17.7006C146.23 16.5246 147.437 15.7789 149.218 15.7789C151.028 15.7789 152.263 16.7254 152.435 18.0734H155.481C155.28 15.0619 152.751 13.3984 149.161 13.3984C145.685 13.3984 143.214 15.1766 143.214 17.9587C143.214 20.9989 145.828 21.7159 149.161 22.1174C151.373 22.4042 152.694 22.5189 152.694 24.0964C152.694 25.2723 151.459 26.018 149.591 26.018C147.379 26.018 146.058 24.9281 145.943 23.4081H142.898C143.013 26.5916 145.685 28.4272 149.563 28.4272Z" fill="black"/>
<path d="M164.824 28.4272C168.358 28.4272 171.001 26.649 171.001 23.8383C171.001 20.5686 168.272 19.8803 164.997 19.4788C162.9 19.2493 161.492 19.0772 161.492 17.7006C161.492 16.5246 162.698 15.7789 164.48 15.7789C166.289 15.7789 167.525 16.7254 167.697 18.0734H170.742C170.541 15.0619 168.013 13.3984 164.422 13.3984C160.946 13.3984 158.475 15.1766 158.475 17.9587C158.475 20.9989 161.09 21.7159 164.422 22.1174C166.634 22.4042 167.956 22.5189 167.956 24.0964C167.956 25.2723 166.72 26.018 164.853 26.018C162.641 26.018 161.319 24.9281 161.205 23.4081H158.159C158.274 26.5916 160.946 28.4272 164.824 28.4272Z" fill="black"/>
<path d="M120.405 25.5316V8.17969H113.051V10.9044H117.302V25.5316H113.051V28.2563H124.628V25.5316H120.405Z" fill="black"/>
<path d="M59.8386 25.5316V8.17969H52.4844V10.9044H56.7361V25.5316H52.4844V28.2563H64.0616V25.5316H59.8386Z" fill="black"/>
<path d="M73.0603 28.4284C77.4556 28.4284 80.472 25.4169 80.472 20.914C80.472 16.4398 77.4556 13.3996 73.0603 13.3996C68.6362 13.3996 65.6486 16.4398 65.6486 20.914C65.6486 25.4169 68.6362 28.4284 73.0603 28.4284ZM73.0603 25.7897C70.5035 25.7897 68.8086 23.7534 68.8086 20.914C68.8086 18.0746 70.5035 16.0382 73.0603 16.0382C75.5883 16.0382 77.2832 18.0746 77.2832 20.914C77.2832 23.7534 75.5883 25.7897 73.0603 25.7897Z" fill="black"/>
<path d="M89.4745 28.4284C93.008 28.4284 95.651 26.6502 95.651 23.8394C95.651 20.5698 92.9218 19.8815 89.6469 19.4799C87.5498 19.2505 86.1421 19.0784 86.1421 17.7017C86.1421 16.5258 87.3487 15.7801 89.1298 15.7801C90.9396 15.7801 92.1749 16.7266 92.3473 18.0746H95.3924C95.1913 15.0631 92.6633 13.3996 89.0724 13.3996C85.5963 13.3996 83.1257 15.1778 83.1257 17.9599C83.1257 21 85.74 21.717 89.0724 22.1186C91.2844 22.4054 92.6058 22.5201 92.6058 24.0976C92.6058 25.2735 91.3706 26.0192 89.5033 26.0192C87.2912 26.0192 85.9698 24.9293 85.8549 23.4092H82.8097C82.9247 26.5928 85.5963 28.4284 89.4745 28.4284Z" fill="black"/>
<path d="M104.736 28.4284C108.27 28.4284 110.912 26.6502 110.912 23.8394C110.912 20.5698 108.183 19.8815 104.908 19.4799C102.811 19.2505 101.404 19.0784 101.404 17.7017C101.404 16.5258 102.61 15.7801 104.391 15.7801C106.201 15.7801 107.436 16.7266 107.609 18.0746H110.654C110.453 15.0631 107.925 13.3996 104.334 13.3996C100.858 13.3996 98.3873 15.1778 98.3873 17.9599C98.3873 21 101.001 21.717 104.334 22.1186C106.546 22.4054 107.867 22.5201 107.867 24.0976C107.867 25.2735 106.632 26.0192 104.765 26.0192C102.553 26.0192 101.231 24.9293 101.116 23.4092H98.0713C98.1862 26.5928 100.858 28.4284 104.736 28.4284Z" fill="black"/>
</svg>
